<svg width="32" height="32" viewBox="0 0 32 32" fill="none" xmlns="http://www.w3.org/2000/svg">
<g clip-path="url(#clip0_5646_20832)">
<path fill-rule="evenodd" clip-rule="evenodd" d="M25.1744 0.9055C25.3282 0.56191 25.6198 0.284899 25.9896 0.131038C26.3594 -0.0228232 26.7796 -0.0419269 27.1643 0.0776274C27.549 0.197182 27.8693 0.446376 28.0596 0.774319C28.25 1.10226 28.2961 1.48422 28.1886 1.84218L28.128 2.00242L23.9656 11.3546L25.0134 11.6096C26.6879 12.0189 28.0817 13.2615 28.3465 14.9571C28.5729 16.4139 28.785 18.6281 28.4932 20.9093C28.2029 23.1702 27.3928 25.6845 25.3881 27.5316C24.6513 28.2105 23.594 28.3183 22.8795 28.3299C22.0646 28.3416 21.1252 28.228 20.1604 28.0532C18.2211 27.7006 15.8959 27.048 13.6951 26.3546L13.0348 26.1434L11.7383 25.7151L10.4943 25.2912L9.32374 24.8789L7.76403 24.3137L6.4531 23.8257L5.15015 23.3231C4.89448 23.2245 4.67142 23.0666 4.50303 22.865C4.33464 22.6635 4.22675 22.4253 4.19002 22.174C4.1533 21.9227 4.18901 21.667 4.29363 21.4322C4.39825 21.1973 4.56815 20.9915 4.78654 20.835C6.98258 19.2618 9.04465 17.4525 10.7846 15.7816L11.6282 14.96L12.0269 14.5609L12.7797 13.7932L13.1305 13.4261L14.0778 12.4137L14.6153 11.8222C15.178 11.1916 15.9169 10.7115 16.7537 10.4328C17.5905 10.1541 18.4943 10.087 19.3694 10.2388L19.6867 10.3058L20.8621 10.5928L25.1744 0.9055ZM14.3649 16.5435C12.6188 18.3086 10.7665 19.9835 8.81659 21.5605C9.73413 21.8994 10.6554 22.2296 11.5804 22.5511C12.4307 21.9975 13.1956 21.3419 13.8546 20.602C14.134 20.2985 14.3939 19.9804 14.6328 19.6493L14.8593 19.3113C15.0692 18.981 15.4126 18.7393 15.8157 18.638C16.2188 18.5368 16.6493 18.5841 17.0145 18.77C17.3798 18.9558 17.6505 19.2651 17.7685 19.6315C17.8865 19.9978 17.8423 20.3918 17.6454 20.7287C17.2722 21.3405 16.8049 21.9145 16.3185 22.4535C15.9244 22.8912 15.5027 23.3076 15.0554 23.7004C15.7922 23.9306 16.529 24.1491 17.2435 24.3501C17.8384 23.9758 18.5353 23.2066 19.1668 22.3326C19.4209 21.983 19.6612 21.6236 19.8877 21.2546L20.213 20.6952C20.4006 20.3488 20.7311 20.0847 21.1319 19.961C21.5327 19.8372 21.9709 19.864 22.35 20.0353C22.7292 20.2066 23.0184 20.5086 23.1539 20.8746C23.2893 21.2407 23.2601 21.641 23.0725 21.9873C22.7073 22.6603 22.2815 23.3115 21.8285 23.9379C21.5143 24.3742 21.1768 24.7961 20.8174 25.2023L21.4889 25.3218C22.0662 25.4194 22.6754 25.4878 23.2256 25.3844C24.4472 24.1972 25.0803 22.4739 25.3243 20.5699C25.3807 20.1271 25.4168 19.6881 25.4328 19.253L14.3649 16.5435ZM18.8606 13.1202C18.5374 13.0466 18.1978 13.0593 17.8823 13.1569C17.5667 13.2545 17.2885 13.4329 17.0808 13.6708L16.6933 14.0977L25.302 16.2041L25.2271 15.6331L25.1888 15.3679C25.1298 14.9994 24.8443 14.6527 24.3738 14.4793L24.1888 14.424L18.8606 13.1202ZM6.49457 8.3392L6.59664 8.54314C7.03152 9.36487 7.71644 10.0547 8.5694 10.5301L8.72888 10.6146C8.74545 10.6233 8.75922 10.6358 8.76879 10.6509C8.77837 10.666 8.78341 10.6831 8.78341 10.7006C8.78341 10.718 8.77837 10.7351 8.76879 10.7502C8.75922 10.7653 8.74545 10.7778 8.72888 10.7865L8.5694 10.871C7.71657 11.3474 7.03218 12.0383 6.59823 12.8609L6.49616 13.0634C6.48732 13.0818 6.47281 13.0974 6.4544 13.1084C6.43599 13.1194 6.41448 13.1252 6.3925 13.1252C6.37052 13.1252 6.34901 13.1194 6.3306 13.1084C6.3122 13.0974 6.29768 13.0818 6.28884 13.0634L6.18677 12.8594C5.75189 12.0377 5.06697 11.3479 4.21401 10.8725L4.05453 10.788C4.03796 10.7793 4.02419 10.7668 4.01462 10.7517C4.00504 10.7366 4 10.7195 4 10.702C4 10.6846 4.00504 10.6674 4.01462 10.6524C4.02419 10.6373 4.03796 10.6247 4.05453 10.6161L4.21401 10.5316C5.06625 10.055 5.75006 9.3641 6.18358 8.54169L6.28565 8.3392C6.29449 8.32082 6.30901 8.30519 6.32741 8.29421C6.34582 8.28323 6.36733 8.27739 6.38931 8.27739C6.4113 8.27739 6.4328 8.28323 6.45121 8.29421C6.46962 8.30519 6.48572 8.32082 6.49457 8.3392ZM11.011 1.26094C11.0748 1.12984 11.2758 1.12984 11.3396 1.26094L11.5022 1.58434C12.1958 2.89193 13.2864 3.98976 14.644 4.7469L14.8944 4.88238C14.9213 4.89598 14.9437 4.91593 14.9594 4.94014C14.975 4.96435 14.9832 4.99194 14.9832 5.02004C14.9832 5.04814 14.975 5.07573 14.9594 5.09994C14.9437 5.12415 14.9213 5.14409 14.8944 5.1577L14.6424 5.29172C13.2845 6.04926 12.1939 7.14761 11.5006 8.45574L11.3412 8.77913C11.3271 8.80843 11.304 8.83336 11.2747 8.85086C11.2454 8.86836 11.2111 8.87768 11.1761 8.87768C11.1411 8.87768 11.1068 8.86836 11.0775 8.85086C11.0482 8.83336 11.0251 8.80843 11.011 8.77913L10.8484 8.45574C10.1551 7.14761 9.06447 6.04926 7.70661 5.29172L7.45464 5.1577C7.42772 5.14409 7.40528 5.12415 7.38965 5.09994C7.37402 5.07573 7.36578 5.04814 7.36578 5.02004C7.36578 4.99194 7.37402 4.96435 7.38965 4.94014C7.40528 4.91593 7.42772 4.89598 7.45464 4.88238L7.70821 4.7469C9.06584 3.98976 10.1564 2.89193 10.85 1.58434L11.0094 1.26094H11.011Z" fill="#FAFAFA"/>
</g>
<defs>
<clipPath id="clip0_5646_20832">
<rect width="32" height="32" fill="white"/>
</clipPath>
</defs>
</svg>
