<svg width="17" height="17" viewBox="0 0 17 17" fill="none" xmlns="http://www.w3.org/2000/svg">
<path d="M8.5 17C6.51667 17 4.76157 16.3981 3.23472 15.1942C1.70787 13.9904 0.716204 12.4516 0.259722 10.5778C0.196759 10.3417 0.243981 10.1254 0.401389 9.92894C0.558796 9.7325 0.771296 9.61822 1.03889 9.58611C1.29074 9.55463 1.51898 9.60185 1.72361 9.72777C1.92824 9.8537 2.06991 10.0426 2.14861 10.2944C2.52639 11.7111 3.30556 12.8681 4.48611 13.7653C5.66667 14.6625 7.00463 15.1111 8.5 15.1111C10.3417 15.1111 11.9041 14.4698 13.1873 13.1873C14.4705 11.9047 15.1117 10.3423 15.1111 8.5C15.1105 6.6577 14.4692 5.09559 13.1873 3.81367C11.9053 2.53174 10.3429 1.89015 8.5 1.88889C7.41389 1.88889 6.39861 2.14074 5.45417 2.64444C4.50972 3.14815 3.71481 3.84074 3.06944 4.72222H4.72222C4.98981 4.72222 5.21428 4.81289 5.39561 4.99422C5.57694 5.17555 5.6673 5.3997 5.66667 5.66666C5.66604 5.93363 5.57537 6.15809 5.39467 6.34005C5.21396 6.52202 4.98981 6.61237 4.72222 6.61111H0.944444C0.676852 6.61111 0.452704 6.52044 0.272 6.33911C0.0912964 6.15778 0.00062963 5.93363 0 5.66666V1.88889C0 1.6213 0.0906668 1.39715 0.272 1.21644C0.453333 1.03574 0.677481 0.945074 0.944444 0.944444C1.21141 0.943815 1.43587 1.03448 1.61783 1.21644C1.7998 1.39841 1.89015 1.62256 1.88889 1.88889V3.16389C2.69167 2.15648 3.67168 1.37731 4.82894 0.826389C5.9862 0.275463 7.20989 0 8.5 0C9.68055 0 10.7865 0.224463 11.8178 0.673389C12.8492 1.12231 13.7464 1.72802 14.5095 2.4905C15.2726 3.25298 15.8786 4.1502 16.3276 5.18217C16.7765 6.21413 17.0006 7.32007 17 8.5C16.9994 9.67992 16.7752 10.7859 16.3276 11.8178C15.8799 12.8498 15.2739 13.747 14.5095 14.5095C13.7451 15.272 12.8479 15.878 11.8178 16.3276C10.7878 16.7771 9.68181 17.0013 8.5 17ZM9.44444 8.12222L11.8056 10.4833C11.9787 10.6565 12.0653 10.8768 12.0653 11.1444C12.0653 11.412 11.9787 11.6324 11.8056 11.8056C11.6324 11.9787 11.412 12.0653 11.1444 12.0653C10.8769 12.0653 10.6565 11.9787 10.4833 11.8056L7.83889 9.16111C7.74444 9.06666 7.67361 8.96057 7.62639 8.84283C7.57917 8.72509 7.55555 8.60294 7.55555 8.47639V4.72222C7.55555 4.45463 7.64622 4.23048 7.82756 4.04978C8.00889 3.86907 8.23304 3.77841 8.5 3.77778C8.76696 3.77715 8.99143 3.86781 9.17339 4.04978C9.35535 4.23174 9.4457 4.45589 9.44444 4.72222V8.12222Z" fill="#C0C0C0"/>
</svg>
