<svg width="32" height="32" viewBox="0 0 32 32" fill="none" xmlns="http://www.w3.org/2000/svg">
<path d="M13.6443 13.6419C14.8538 12.4325 16.4819 11.7342 18.1918 11.6915C19.9017 11.6488 21.5626 12.265 22.8309 13.4126L23.0723 13.6419L26.8429 17.4139C28.071 18.6441 28.77 20.3053 28.7909 22.0435C28.8118 23.7816 28.1531 25.4592 26.955 26.7186C25.7569 27.9781 24.1143 28.7198 22.3773 28.7856C20.6403 28.8515 18.9463 28.2363 17.6563 27.0712L17.4163 26.8419L14.5869 24.0126C14.3478 23.7726 14.209 23.4506 14.1986 23.112C14.1883 22.7734 14.3072 22.4436 14.5313 22.1895C14.7553 21.9354 15.0677 21.7762 15.4049 21.744C15.7421 21.7119 16.079 21.8093 16.3469 22.0166L16.4723 22.1272L19.3016 24.9566C20.035 25.6943 21.027 26.1172 22.0671 26.1357C23.1072 26.1542 24.1136 25.7668 24.8728 25.0557C25.632 24.3445 26.0843 23.3656 26.1337 22.3265C26.1832 21.2874 25.8259 20.2699 25.1376 19.4899L24.9576 19.2992L21.1869 15.5286C20.8155 15.1571 20.3745 14.8624 19.8892 14.6613C19.4038 14.4602 18.8836 14.3567 18.3583 14.3567C17.8329 14.3567 17.3127 14.4602 16.8274 14.6613C16.342 14.8624 15.901 15.1571 15.5296 15.5286C15.2794 15.7786 14.9402 15.919 14.5865 15.9188C14.2328 15.9187 13.8936 15.7781 13.6436 15.5279C13.3936 15.2777 13.2532 14.9384 13.2533 14.5848C13.2535 14.2311 13.3941 13.8919 13.6443 13.6419ZM5.15894 5.15656C6.36845 3.94714 7.99654 3.24887 9.70645 3.20618C11.4164 3.16349 13.0773 3.77966 14.3456 4.92723L14.5869 5.15656L17.4149 7.98723C17.6541 8.22717 17.7929 8.54914 17.8032 8.88774C17.8136 9.22634 17.6947 9.55618 17.4706 9.81027C17.2466 10.0644 16.9342 10.2236 16.597 10.2558C16.2597 10.2879 15.9229 10.1904 15.6549 9.98323L15.5296 9.87256L12.7016 7.04456C11.9669 6.31464 10.9777 5.89813 9.94219 5.88266C8.90665 5.86719 7.90547 6.25396 7.14929 6.96161C6.39311 7.66926 5.94087 8.64261 5.88771 9.6769C5.83455 10.7112 6.18462 11.7258 6.86427 12.5072L7.04427 12.6992L10.8163 16.4712C11.5664 17.2211 12.5836 17.6424 13.6443 17.6424C14.7049 17.6424 15.7222 17.2211 16.4723 16.4712C16.5961 16.3473 16.743 16.2491 16.9048 16.182C17.0666 16.1149 17.24 16.0804 17.4151 16.0803C17.5903 16.0802 17.7637 16.1147 17.9255 16.1816C18.0873 16.2486 18.2344 16.3468 18.3583 16.4706C18.4822 16.5944 18.5804 16.7413 18.6475 16.9031C18.7146 17.0649 18.7491 17.2383 18.7492 17.4134C18.7493 17.5886 18.7148 17.762 18.6479 17.9238C18.5809 18.0856 18.4827 18.2327 18.3589 18.3566C17.1494 19.566 15.5213 20.2643 13.8114 20.3069C12.1015 20.3496 10.4406 19.7335 9.17227 18.5859L8.92961 18.3566L5.15894 14.5846C3.90913 13.3344 3.20703 11.639 3.20703 9.87123C3.20703 8.10347 3.90913 6.40674 5.15894 5.15656Z" fill="#FAFAFA"/>
</svg>
