<svg width="16" height="16" viewBox="0 0 16 16" fill="none" xmlns="http://www.w3.org/2000/svg">
<path d="M0.339959 14.0186C-0.11332 14.4718 -0.11332 15.2066 0.339959 15.6599C0.793221 16.1132 1.52811 16.1132 1.98138 15.6599L7.99997 9.6413L14.0186 15.6599C14.4718 16.1132 15.2068 16.1132 15.66 15.6599C16.1133 15.2066 16.1133 14.4718 15.66 14.0186L9.64146 7.99991L15.6599 1.98138C16.1132 1.52811 16.1132 0.793221 15.6599 0.339959C15.2066 -0.11332 14.4718 -0.11332 14.0186 0.339959L7.99997 6.35848L1.98146 0.339959C1.52818 -0.11332 0.793299 -0.11332 0.340036 0.339959C-0.113242 0.793221 -0.113242 1.52811 0.340036 1.98138L6.35856 7.99991L0.339959 14.0186Z" fill="#414141"/>
</svg>
